<?xml version="1.0" encoding="utf-8"?>
<!-- Generator: Adobe Illustrator 19.1.0, SVG Export Plug-In . SVG Version: 6.00 Build 0)  -->
<svg version="1.1" id="Layer_1" xmlns="http://www.w3.org/2000/svg" xmlns:xlink="http://www.w3.org/1999/xlink" x="0px" y="0px"
	 width="269.8px" height="174.4px" viewBox="0 0 269.8 174.4" style="enable-background:new 0 0 269.8 174.4;" xml:space="preserve"
	>
<style type="text/css">
	.st0{fill:#E9DCCA;}
</style>
<path class="st0" d="M0,37c0,20.1,0,40.2,0,60.3c0,20.7,15.7,36.4,36.4,36.4c54.5,0,109,0,163.5-0.1c3,0,4.5,0.9,6,3.6
	c10.2,18.9,25.8,31.1,46.5,36.6c1.4,0.4,2.8,0.4,4.2,0.6c0.1-0.1,0.2-0.2,0.3-0.3c-3.8-5-8-9.7-10.9-15.4
	c-3.7-7.1-5.8-14.6-6.1-22.6c-0.1-2,0.5-2.9,2.6-3.5c17.3-5,27.1-18.1,27.1-36c0-19.8,0-39.7,0-59.5c0-21.2-15.6-36.9-36.8-36.9
	C167.6,0,102.2,0,36.8,0.1C15.6,0.1,0,15.8,0,37z"/>
</svg>
