<?xml version="1.0" encoding="utf-8"?>
<!-- Generator: Adobe Illustrator 19.1.0, SVG Export Plug-In . SVG Version: 6.00 Build 0)  -->
<svg version="1.1" id="Layer_1" xmlns="http://www.w3.org/2000/svg" xmlns:xlink="http://www.w3.org/1999/xlink" x="0px" y="0px"
	 width="790.7px" height="790.8px" viewBox="0 0 790.7 790.8" style="enable-background:new 0 0 790.7 790.8;" xml:space="preserve"
	>
<style type="text/css">
	.st0{fill:#FFFFFF;}
</style>
<image style="display:none;overflow:visible;" width="800" height="800" xlink:href="FC82A88B6DD7B5DE.png"  transform="matrix(1 0 0 1 -0.8333 -0.8333)">
</image>
<g>
	<path class="st0" d="M0,750.6C0,513.9,0,277.1,0,40.4c0.4-1,0.9-2,1-3.1c2.5-17.8,16.9-33,34.2-36.1C37,0.9,38.7,0.4,40.4,0
		c236.8,0,473.5,0,710.3,0c0.9,0.3,1.7,0.8,2.7,1c22.4,3.6,37.4,21.3,37.4,44.1c0,233.6,0,467.2,0,700.7c0,3.8-0.5,7.7-1.4,11.4
		c-4.9,20.2-22.2,33.5-43.3,33.5c-65,0-129.9,0-194.9,0c-1.4,0-2.9,0-4.3,0c0-102.3,0-204,0-306c1.9,0,3.5,0,5.2,0
		c30.1,0,60.1,0,90.2,0c8.1,0,6.8,1,7.8-6.9c4.7-35.5,9.2-71,13.8-106.5c0.8-6.4,0.9-6.4-5.4-6.4c-35.6,0-71.1,0-106.7,0
		c-1.6,0-3.2,0-5.1,0c0-2.1,0-3.6,0-5.1c0-23.3-0.1-46.7,0.1-70c0.1-6.8,0.6-13.7,1.6-20.5c2.8-19.2,13.5-31.1,32.5-35.2
		c8.2-1.8,16.9-2.3,25.3-2.5c18.9-0.4,37.9-0.1,56.8-0.1c1.7,0,3.5-0.2,5.6-0.3c0-1.7,0-3,0-4.4c0-7.7,0-15.4,0-23.1
		c0-24.9-0.1-49.7,0.1-74.6c0-4-0.6-6.2-5.3-5.9c-2.3,0.2-4.6-0.5-6.9-0.7c-16-1-32-2.2-48.1-2.8c-25.6-0.9-51.3-1.7-76.6,4.4
		c-41,9.8-72.4,32.2-91.8,70c-12,23.4-17.3,48.5-17.6,74.7c-0.3,30.6-0.2,61.2-0.2,91.9c0,1.3-0.2,2.6-0.3,4.1c-2.1,0-3.7,0-5.4,0
		c-31,0-62.1,0.1-93.1-0.1c-3.8,0-4.9,1-4.9,4.8c0.1,36.8,0.1,73.6,0,110.4c0,3.8,1.1,4.8,4.8,4.8c31.3-0.1,62.6-0.1,93.9-0.1
		c1.5,0,2.9,0,4.6,0c0.1,1.5,0.2,2.6,0.2,3.7c0,99,0,198,0,297c0,5.3,0,5.3-5.4,5.3c-89.4,0-178.8,0-268.2,0
		c-34.7,0-69.5,0.1-104.2,0C23.6,790.7,6.4,777,1.6,756.9C1.1,754.8,0.5,752.7,0,750.6z"/>
</g>
<image style="display:none;overflow:visible;" width="626" height="626" xlink:href="FC82A88B6DD7B5E2.jpg"  transform="matrix(1.278 0 0 1.278 -0.8333 -0.8333)">
</image>
<image style="display:none;overflow:visible;" width="902" height="900" xlink:href="FC82A88B6DD7B5E2.png"  transform="matrix(0.8889 0 0 0.8889 -0.8333 -0.8333)">
</image>
</svg>
