<?xml version="1.0" encoding="utf-8"?>
<!-- Generator: Adobe Illustrator 19.1.0, SVG Export Plug-In . SVG Version: 6.00 Build 0)  -->
<svg version="1.1" id="Layer_1" xmlns="http://www.w3.org/2000/svg" xmlns:xlink="http://www.w3.org/1999/xlink" x="0px" y="0px"
	 width="790.6px" height="792px" viewBox="0 0 790.6 792" style="enable-background:new 0 0 790.6 792;" xml:space="preserve">
<style type="text/css">
	.st0{fill:#FFFFFF;}
</style>
<g>
	<path class="st0" d="M119.7,2.8c0,94.7,0,189.6,0,286.3c-29.3,0-57.9,0-88.7,0c-0.5,9.1-1.2,16.5-1.3,23.9
		c-0.1,114.1-0.2,228.3,0,342.4C29.8,714.8,75.9,761,135.3,761c173.3,0.1,346.6,0.1,520,0c59.5,0,105.8-46,105.9-105.3
		c0.2-114.8,0.1-229.7,0.1-344.5c0-6.3,0-12.6,0-20.2c-70.7,0-139.9,0-211.9,0c47.5,56.2,67.6,118.4,53.1,189.3
		c-10.4,50.9-36.6,92.5-77.7,124.5c-82.5,64.3-200.7,57.8-276.5-15.5c-67.6-65.3-98.5-188.8-9.7-294.8c-2.8-5.4-7.5-10.1-7.5-14.9
		c-0.4-92.2-0.3-184.5-0.3-279.7c8.7,0,16.2,0,23.7,0c143,0,286-0.1,429.1,0c62,0,107.4,45.7,107.4,108c0.1,191.6,0.1,383.3,0,574.9
		c0,62.1-45.6,107.8-107.6,107.8c-191.6,0.1-383.3,0.1-574.9,0c-62.4,0-108.1-45.4-108.1-107.3C0,490.4-0.1,297.4,0.1,104.3
		C0.2,40.1,58.9-9.7,119.7,2.8z M394.5,615.2c97.8,0.3,178-78.7,178.5-176.1c0.5-97.9-78.3-178.4-175.6-179.1
		c-98.9-0.7-179.4,78.7-179.6,177.1C217.7,535,297,614.9,394.5,615.2z M637.1,69.8c-20.4,0-40.8-0.2-61.3,0.1
		c-17.7,0.2-27.8,9.5-28,27.3c-0.4,32.4-0.4,64.8,0,97.2c0.2,17.8,10,27.4,27.8,27.5c40.8,0.3,81.7,0.4,122.5-0.1
		c17.9-0.2,26.9-10.6,27-28.3c0.2-31.7,0.2-63.4,0-95.1C725,79.6,715.1,70,696.2,69.9C676.5,69.7,656.8,69.8,637.1,69.8z"/>
	<path class="st0" d="M155.4,288.5c0-95.7,0-190.4,0-286.8c13,0,25.8,0,40,0c0,95.4,0,190.5,0,286.8
		C182.6,288.5,170.1,288.5,155.4,288.5z"/>
	<path class="st0" d="M394.5,585.6c-81.2-0.4-147.2-67-147-148.4c0.2-82.1,67.5-148.4,150-147.5c81,0.8,146.5,67.9,146,149.4
		C542.8,520.3,476,586,394.5,585.6z"/>
</g>
</svg>
