<?xml version="1.0" encoding="utf-8"?>
<!-- Generator: Adobe Illustrator 19.1.0, SVG Export Plug-In . SVG Version: 6.00 Build 0)  -->
<svg version="1.1" id="Layer_1" xmlns="http://www.w3.org/2000/svg" xmlns:xlink="http://www.w3.org/1999/xlink" x="0px" y="0px"
	 width="189.8px" height="79.6px" viewBox="0 0 189.8 79.6" style="enable-background:new 0 0 189.8 79.6;" xml:space="preserve">
<style type="text/css">
	.st0{fill:#E9DCCA;}
	.st1{fill:#EF675F;}
</style>
<g>
	<path class="st0" d="M184.2,21.1v18.7c0,6-4.9,10.9-10.9,10.9h-51.2c-1.5,3.3-3.8,6.2-6.9,8.5c-2.9,2.2-6.2,3.5-9.5,4.1
		c3.9-4,5.7-8.3,5.5-12.7c-5.1-0.9-9-5.4-9-10.8V21.1c0-6,4.9-10.9,10.9-10.9h60.2C179.3,10.1,184.2,15,184.2,21.1z"/>
	<g>
		<g>
			<path class="st0" d="M24.5,23.3c-1.2-1.4-3-2.1-5.3-2.1c-1.9,0-3.2,0.4-4.1,1.1c-0.9,0.7-1.3,1.7-1.3,2.9c0,0.6,0.1,1.1,0.3,1.5
				c0.2,0.4,0.6,0.8,1,1c0.5,0.3,1,0.5,1.8,0.7c0.7,0.2,1.6,0.4,2.5,0.6c1,0.2,2,0.5,2.8,0.7c0.8,0.3,1.5,0.6,2.1,1s1,0.9,1.4,1.5
				c0.3,0.6,0.5,1.3,0.5,2.1c0,0.8-0.2,1.6-0.5,2.2c-0.3,0.6-0.8,1.2-1.4,1.6c-0.6,0.4-1.3,0.7-2.2,1c-0.8,0.2-1.8,0.3-2.8,0.3
				c-3,0-5.5-1-7.6-2.9l0.7-1.1c0.8,0.8,1.8,1.5,3,2c1.2,0.5,2.5,0.7,3.9,0.7c1.7,0,3-0.3,3.9-0.9c0.9-0.6,1.4-1.5,1.4-2.8
				c0-0.6-0.1-1.2-0.4-1.6c-0.2-0.4-0.6-0.8-1.1-1.1c-0.5-0.3-1.1-0.6-1.9-0.8s-1.6-0.5-2.6-0.7c-1-0.2-1.9-0.4-2.7-0.7
				c-0.8-0.2-1.4-0.5-2-0.9c-0.5-0.4-0.9-0.8-1.2-1.3c-0.3-0.5-0.4-1.2-0.4-2c0-0.9,0.2-1.6,0.5-2.3c0.3-0.7,0.8-1.2,1.4-1.7
				c0.6-0.5,1.3-0.8,2.1-1c0.8-0.2,1.7-0.4,2.8-0.4c1.2,0,2.3,0.2,3.3,0.6c1,0.4,1.9,0.9,2.6,1.7L24.5,23.3z"/>
			<path class="st0" d="M29.8,39.3V20.1h7.9c0.8,0,1.6,0.2,2.2,0.5c0.7,0.3,1.3,0.8,1.8,1.4c0.5,0.6,0.9,1.2,1.2,1.9
				c0.3,0.7,0.4,1.4,0.4,2.1c0,0.8-0.1,1.5-0.4,2.2c-0.3,0.7-0.6,1.4-1.1,1.9c-0.5,0.6-1,1-1.7,1.3c-0.7,0.3-1.4,0.5-2.2,0.5h-6.7
				v7.2H29.8z M31.2,30.8h6.6c0.6,0,1.2-0.1,1.7-0.4c0.5-0.3,0.9-0.6,1.3-1.1c0.4-0.4,0.6-0.9,0.8-1.5c0.2-0.6,0.3-1.2,0.3-1.8
				c0-0.6-0.1-1.2-0.3-1.8c-0.2-0.6-0.5-1.1-0.9-1.5c-0.4-0.4-0.8-0.8-1.4-1s-1.1-0.4-1.6-0.4h-6.5V30.8z"/>
			<path class="st0" d="M59.4,38v1.2H46.6V20.1h12.5v1.2H48v7.5h9.7v1.2H48v8H59.4z"/>
			<path class="st0" d="M61.2,39.3l8.2-19.2h1.1l8.2,19.2h-1.5l-2.7-6.3h-9.2l-2.7,6.3H61.2z M69.9,21.8l-4.3,10h8.5L69.9,21.8z"/>
			<path class="st0" d="M81.6,39.3V20.1H83v11.6l11.2-11.6h1.6l-8,8.4l8.4,10.8h-1.6l-7.7-9.9l-3.9,4v5.9H81.6z"/>
			<path class="st1" d="M125.3,38v1.2h-12.8V20.1H125v1.2h-11.2v7.5h9.7v1.2h-9.7v8H125.3z"/>
			<path class="st1" d="M127,39.3l8.2-19.2h1.1l8.2,19.2H143l-2.7-6.3h-9.2l-2.7,6.3H127z M135.8,21.8l-4.3,10h8.5L135.8,21.8z"/>
			<path class="st1" d="M158.4,23.3c-1.2-1.4-3-2.1-5.3-2.1c-1.9,0-3.2,0.4-4.1,1.1c-0.9,0.7-1.3,1.7-1.3,2.9c0,0.6,0.1,1.1,0.3,1.5
				c0.2,0.4,0.6,0.8,1,1c0.5,0.3,1,0.5,1.8,0.7c0.7,0.2,1.6,0.4,2.5,0.6c1,0.2,2,0.5,2.8,0.7c0.8,0.3,1.5,0.6,2.1,1s1,0.9,1.3,1.5
				c0.3,0.6,0.5,1.3,0.5,2.1c0,0.8-0.2,1.6-0.5,2.2c-0.3,0.6-0.8,1.2-1.4,1.6c-0.6,0.4-1.3,0.7-2.2,1c-0.8,0.2-1.8,0.3-2.8,0.3
				c-3,0-5.5-1-7.6-2.9l0.7-1.1c0.8,0.8,1.8,1.5,3,2s2.5,0.7,3.9,0.7c1.7,0,3-0.3,3.9-0.9c0.9-0.6,1.4-1.5,1.4-2.8
				c0-0.6-0.1-1.2-0.4-1.6c-0.2-0.4-0.6-0.8-1.1-1.1c-0.5-0.3-1.1-0.6-1.9-0.8s-1.6-0.5-2.6-0.7c-1-0.2-1.9-0.4-2.7-0.7
				s-1.4-0.5-2-0.9c-0.5-0.4-0.9-0.8-1.2-1.3c-0.3-0.5-0.4-1.2-0.4-2c0-0.9,0.2-1.6,0.5-2.3c0.3-0.7,0.8-1.2,1.4-1.7s1.3-0.8,2.1-1
				c0.8-0.2,1.7-0.4,2.8-0.4c1.2,0,2.3,0.2,3.3,0.6c1,0.4,1.9,0.9,2.6,1.7L158.4,23.3z"/>
			<path class="st1" d="M162.4,20.1l6.7,10.6l6.8-10.6h1.5L169.8,32v7.2h-1.4V32l-7.5-11.9H162.4z"/>
		</g>
	</g>
</g>
<g>
</g>
<g>
</g>
<g>
</g>
<g>
</g>
<g>
</g>
<g>
</g>
</svg>
