<?xml version="1.0" encoding="utf-8"?>
<!-- Generator: Adobe Illustrator 19.1.0, SVG Export Plug-In . SVG Version: 6.00 Build 0)  -->
<svg version="1.1" id="Layer_1" xmlns="http://www.w3.org/2000/svg" xmlns:xlink="http://www.w3.org/1999/xlink" x="0px" y="0px"
	 width="173.4px" height="53.2px" viewBox="0 0 173.4 53.2" style="enable-background:new 0 0 173.4 53.2;" xml:space="preserve">
<style type="text/css">
	.st0{fill:#E9DCCA;}
	.st1{fill:#EF675F;}
</style>
<g>
	<path class="st0" d="M173.4,10.9v18.7c0,6-4.9,10.9-10.9,10.9h-51.2c-1.5,3.3-3.8,6.2-6.9,8.5c-2.9,2.2-6.2,3.5-9.5,4.1
		c3.9-4,5.7-8.3,5.5-12.7c-5.1-0.9-9-5.4-9-10.8V10.9c0-6,4.9-10.9,10.9-10.9h60.2C168.5,0,173.4,4.9,173.4,10.9z"/>
	<g>
		<g>
			<path class="st0" d="M13.7,13.1c-1.2-1.4-3-2.1-5.3-2.1c-1.9,0-3.2,0.4-4.1,1.1c-0.9,0.7-1.3,1.7-1.3,2.9c0,0.6,0.1,1.1,0.3,1.5
				c0.2,0.4,0.6,0.8,1,1c0.5,0.3,1,0.5,1.8,0.7c0.7,0.2,1.6,0.4,2.5,0.6c1,0.2,2,0.5,2.8,0.7c0.8,0.3,1.5,0.6,2.1,1s1,0.9,1.4,1.5
				c0.3,0.6,0.5,1.3,0.5,2.1c0,0.8-0.2,1.6-0.5,2.2c-0.3,0.6-0.8,1.2-1.4,1.6c-0.6,0.4-1.3,0.7-2.2,1c-0.8,0.2-1.8,0.3-2.8,0.3
				c-3,0-5.5-1-7.6-2.9l0.7-1.1c0.8,0.8,1.8,1.5,3,2c1.2,0.5,2.5,0.7,3.9,0.7c1.7,0,3-0.3,3.9-0.9c0.9-0.6,1.4-1.5,1.4-2.8
				c0-0.6-0.1-1.2-0.4-1.6c-0.2-0.4-0.6-0.8-1.1-1.1c-0.5-0.3-1.1-0.6-1.9-0.8S9,20.3,8,20.1c-1-0.2-1.9-0.4-2.7-0.7
				c-0.8-0.2-1.4-0.5-2-0.9c-0.5-0.4-0.9-0.8-1.2-1.3c-0.3-0.5-0.4-1.2-0.4-2c0-0.9,0.2-1.6,0.5-2.3c0.3-0.7,0.8-1.2,1.4-1.7
				c0.6-0.5,1.3-0.8,2.1-1c0.8-0.2,1.7-0.4,2.8-0.4c1.2,0,2.3,0.2,3.3,0.6c1,0.4,1.9,0.9,2.6,1.7L13.7,13.1z"/>
			<path class="st0" d="M19,29.1V9.9h7.9c0.8,0,1.6,0.2,2.2,0.5c0.7,0.3,1.3,0.8,1.8,1.4c0.5,0.6,0.9,1.2,1.2,1.9
				c0.3,0.7,0.4,1.4,0.4,2.1c0,0.8-0.1,1.5-0.4,2.2c-0.3,0.7-0.6,1.4-1.1,1.9c-0.5,0.6-1,1-1.7,1.3c-0.7,0.3-1.4,0.5-2.2,0.5h-6.7
				v7.2H19z M20.4,20.6H27c0.6,0,1.2-0.1,1.7-0.4c0.5-0.3,0.9-0.6,1.3-1.1c0.4-0.4,0.6-0.9,0.8-1.5c0.2-0.6,0.3-1.2,0.3-1.8
				c0-0.6-0.1-1.2-0.3-1.8c-0.2-0.6-0.5-1.1-0.9-1.5c-0.4-0.4-0.8-0.8-1.4-1s-1.1-0.4-1.6-0.4h-6.5V20.6z"/>
			<path class="st0" d="M48.6,27.9v1.2H35.8V9.9h12.5v1.2H37.2v7.5H47v1.2h-9.7v8H48.6z"/>
			<path class="st0" d="M50.4,29.1l8.2-19.2h1.1l8.2,19.2h-1.5l-2.7-6.3h-9.2l-2.7,6.3H50.4z M59.1,11.6l-4.3,10h8.5L59.1,11.6z"/>
			<path class="st0" d="M70.8,29.1V10h1.4v11.6L83.4,9.9H85l-8,8.4l8.4,10.8h-1.6l-7.7-9.9l-3.9,4v5.9H70.8z"/>
			<path class="st1" d="M114.5,27.9v1.2h-12.8V9.9h12.5v1.2h-11.2v7.5h9.7v1.2h-9.7v8H114.5z"/>
			<path class="st1" d="M116.2,29.1l8.2-19.2h1.1l8.2,19.2h-1.5l-2.7-6.3h-9.2l-2.7,6.3H116.2z M125,11.6l-4.3,10h8.5L125,11.6z"/>
			<path class="st1" d="M147.6,13.1c-1.2-1.4-3-2.1-5.3-2.1c-1.9,0-3.2,0.4-4.1,1.1c-0.9,0.7-1.3,1.7-1.3,2.9c0,0.6,0.1,1.1,0.3,1.5
				c0.2,0.4,0.6,0.8,1,1c0.5,0.3,1,0.5,1.8,0.7c0.7,0.2,1.6,0.4,2.5,0.6c1,0.2,2,0.5,2.8,0.7c0.8,0.3,1.5,0.6,2.1,1s1,0.9,1.3,1.5
				c0.3,0.6,0.5,1.3,0.5,2.1c0,0.8-0.2,1.6-0.5,2.2c-0.3,0.6-0.8,1.2-1.4,1.6c-0.6,0.4-1.3,0.7-2.2,1c-0.8,0.2-1.8,0.3-2.8,0.3
				c-3,0-5.5-1-7.6-2.9l0.7-1.1c0.8,0.8,1.8,1.5,3,2s2.5,0.7,3.9,0.7c1.7,0,3-0.3,3.9-0.9c0.9-0.6,1.4-1.5,1.4-2.8
				c0-0.6-0.1-1.2-0.4-1.6c-0.2-0.4-0.6-0.8-1.1-1.1c-0.5-0.3-1.1-0.6-1.9-0.8s-1.6-0.5-2.6-0.7c-1-0.2-1.9-0.4-2.7-0.7
				s-1.4-0.5-2-0.9c-0.5-0.4-0.9-0.8-1.2-1.3c-0.3-0.5-0.4-1.2-0.4-2c0-0.9,0.2-1.6,0.5-2.3c0.3-0.7,0.8-1.2,1.4-1.7s1.3-0.8,2.1-1
				c0.8-0.2,1.7-0.4,2.8-0.4c1.2,0,2.3,0.2,3.3,0.6c1,0.4,1.9,0.9,2.6,1.7L147.6,13.1z"/>
			<path class="st1" d="M151.6,9.9l6.7,10.6L165,9.9h1.5L159,21.9v7.2h-1.4v-7.3l-7.5-11.9H151.6z"/>
		</g>
	</g>
</g>
<g>
</g>
<g>
</g>
<g>
</g>
<g>
</g>
<g>
</g>
<g>
</g>
</svg>
