<?xml version="1.0" encoding="utf-8"?>
<!-- Generator: Adobe Illustrator 19.1.0, SVG Export Plug-In . SVG Version: 6.00 Build 0)  -->
<svg version="1.1" id="Layer_1" xmlns="http://www.w3.org/2000/svg" xmlns:xlink="http://www.w3.org/1999/xlink" x="0px" y="0px"
	 width="791.8px" height="790.5px" viewBox="0 0 791.8 790.5" style="enable-background:new 0 0 791.8 790.5;" xml:space="preserve"
	>
<style type="text/css">
	.st0{fill:#FFFFFF;}
</style>
<image style="display:none;overflow:visible;" width="800" height="800" xlink:href="78C93C2775302DC6.png" >
</image>
<image style="display:none;overflow:visible;" width="960" height="960" xlink:href="78C93C2775302DCA.png"  transform="matrix(0.8333 0 0 0.8333 0 0)">
</image>
<g>
	<g>
		<path class="st0" d="M371.5,1.3c16,0,31.9,0,47.9,0c1.8,0.4,3.6,0.9,5.4,1.2c19.7,3,39.5,5.1,59,9.2c41.6,8.7,80.4,25,116.6,47.2
			c46,28.1,84.7,64.1,116,108.1c37.5,52.8,60.8,111.2,69.4,175.4c1.3,9.7,2.6,19.5,3.8,29.2c0,16,0,31.9,0,47.9
			c-0.4,1.8-0.9,3.6-1.2,5.5c-3,19.7-5.3,39.5-9.2,59c-6.3,31.6-17.8,61.6-32.5,90.3c-29.3,57.1-70,104.6-122.4,142
			c-53,37.9-111.8,61.3-176.5,69.8c-9.5,1.3-19,2.5-28.6,3.8c-16,0-31.9,0-47.9,0c-9.5-1.3-19-2.6-28.6-3.8
			c-44.6-5.6-86.8-18.9-126.7-39.3c-56.9-29.2-104.2-69.9-141.4-122.1C37,571.5,13.5,512.7,5,448c-1.3-9.5-2.5-19.1-3.8-28.6
			c0-16,0-31.9,0-47.9c0.4-1.8,0.9-3.6,1.2-5.5c3-19.5,4.9-39.2,9.1-58.4c14.3-65.7,44.7-123.5,89.1-173.8
			c24.9-28.3,53.6-52.4,85.6-72.4C234.5,31.4,286.6,12.4,343,5C352.5,3.8,362,2.5,371.5,1.3z M150.1,185.5
			c-14.7,27.6-19.4,55.1-12.7,84.4c6.6,29.3,23,52.2,47.9,71c-19.4-0.5-35.5-6.1-51.8-14c-0.1,28.2,8.4,52.4,25.1,73.7
			c16.8,21.4,38.9,35,65.2,42.3c-16,4.6-32.1,4.5-49.6,2c19.6,50.1,55.3,76.5,108.5,81.7c-51.2,38.4-107.2,53.5-170.6,48.3
			c2.3,1.7,3,2.4,3.8,2.9c32.6,20.1,67.6,34.2,105.1,42c38.7,8,77.7,9.2,117,4c44.7-5.9,86.5-20.1,125-43.4
			c41.1-24.9,74.5-58.1,101.1-98.2c15.1-22.8,27.6-47,37-72.7c14.8-40.6,22.1-82.5,21.1-125.9c-0.1-2.4,1.7-5.4,3.5-7.2
			c13.8-13.7,28.1-26.9,41.8-40.7c4.3-4.3,7.3-9.8,10.9-14.8c-21,5.7-41.5,11.3-62,16.9c-0.3-0.7-0.7-1.4-1-2.1
			c22.7-15.3,39.4-35.2,48.8-63.1c-3.9,2-6,3-8.2,4.2c-18.1,10-37.4,16.8-57.4,22c-6.4,1.7-10.3,0.2-14.9-4
			c-28-25.4-60.9-35.2-98.2-29.2c-52.7,8.5-93.2,52.7-96.9,105.8c-0.8,11.6-0.1,23.3-0.1,35.9C293.3,300.6,213.7,260.1,150.1,185.5z
			"/>
	</g>
</g>
<image style="display:none;overflow:visible;" width="902" height="900" xlink:href="78C93C2775302DCD.png"  transform="matrix(0.8889 0 0 0.8889 0 0)">
</image>
</svg>
